# xmcd
#
# Track frame offsets:
#	150
#	15242
#	33072
#	44152
#	59337
#	78675
#	92685
#	102465
#	119297
#	139547
#
# Disc length: 2071
#
# Revision: 3
# Processed by: cddbd v1.5.2PL0 Copyright (c) Steve Scherf et al.
# Submitted via: Broken Cross Disk Manager 3.94.2201
#
DISCID=7c08150a
DTITLE=Willie Nelson - A Horse Called Music
DYEAR=1989
DGENRE=
TTITLE0=Nothing I Can Do About It Now
TTITLE1=The Highway
TTITLE2=I Never Cared For You
TTITLE3=If I Were A Painting
TTITLE4=Spirit
TTITLE5=There You Are
TTITLE6=Mr Record Man
TTITLE7=If My World Didn't Have You
TTITLE8=A Horse Called Music
TTITLE9=Is The Better Part Over
EXTD=
EXTT0=
EXTT1=
EXTT2=
EXTT3=
EXTT4=
EXTT5=
EXTT6=
EXTT7=
EXTT8=
EXTT9=
PLAYORDER=
